# xmcd
#
# Track frame offsets: 
#        150
#        14638
#        27014
#        38371
#        50050
#        64614
#        77449
#        91177
#        103011
#        115946
#        129505
#        144224
#        156456
#        170483
#        179214
#        196569
#
# Disc length: 2790 seconds
#
# Revision: 0
# Processed by: cddbd v1.5.2PL0 Copyright (c) Steve Scherf et al.
# Submitted via: ExactAudioCopy v0.95b4
#
DISCID=cb0ae410
DTITLE=Various Artist - Country Ladies
DYEAR=2005
DGENRE=Country
TTITLE0=Jeannie C. Riley - Harper Valley P.T.A.
TTITLE1=Billie Jo Spears - The Cheating Kind
TTITLE2=Dolly Parton - Making Believe
TTITLE3=Patsy Cline - A Poor Man's Roses (Or A Rich Man's Gold)
TTITLE4=Loretta Lynn - Coal Miner's Daughter
TTITLE5=Lynn Anderson - Rose Garden
TTITLE6=Patti Page - Tennessee Waltz
TTITLE7=Marie Osmond - I'll Take You Back
TTITLE8=Kitty Wells - After Dark
TTITLE9=Brenda Lee - You Don't Have To Say You Love Me
TTITLE10=Anne Murray - Both Sides Now
TTITLE11=Tanya Tucker - Love Knows We Tried
TTITLE12=Rita Remington - Angel Of The Morning
TTITLE13=Sandy Posey - Born A Woman
TTITLE14=Deborah Allen - Baby, I Lied
TTITLE15=Rita Coolidge - Words
EXTD=
EXTT0=
EXTT1=
EXTT2=
EXTT3=
EXTT4=
EXTT5=
EXTT6=
EXTT7=
EXTT8=
EXTT9=
EXTT10=
EXTT11=
EXTT12=
EXTT13=
EXTT14=
EXTT15=
PLAYORDER=
